<?xml version="1.0" encoding="utf-8"?>
<!-- Generator: Adobe Illustrator 16.0.0, SVG Export Plug-In . SVG Version: 6.00 Build 0)  -->
<!DOCTYPE svg PUBLIC "-//W3C//DTD SVG 1.1//EN" "http://www.w3.org/Graphics/SVG/1.1/DTD/svg11.dtd">
<svg version="1.1" id="Livello_1" xmlns="http://www.w3.org/2000/svg" xmlns:xlink="http://www.w3.org/1999/xlink" x="0px" y="0px"
	 width="45.5px" height="45.5px" viewBox="53.5 -87.5 45.5 45.5" enable-background="new 53.5 -87.5 45.5 45.5"
	 xml:space="preserve">
<g>
	<g>
		<polygon fill="#B2D06C" points="83.596,-65.515 78.699,-65.515 78.699,-70.411 77.301,-70.411 77.301,-65.515 72.406,-65.515 
			72.406,-64.117 77.301,-64.117 77.301,-59.222 78.699,-59.222 78.699,-64.117 83.596,-64.117 		"/>
	</g>
	<g>
		<path fill="#B2D06C" d="M91-51.5h-1v-1h1V-51.5z M88-51.5h-1v-1h1V-51.5z M85-51.5h-1v-1h1V-51.5z M82-51.5h-1v-1h1V-51.5z
			 M79-51.5h-1v-1h1V-51.5z M76-51.5h-1v-1h1V-51.5z M73-51.5h-1v-1h1V-51.5z M70-51.5h-1v-1h1V-51.5z M67-51.5h-1v-1h1V-51.5z
			 M91.5-53h-1v-1h1V-53z M65.5-53h-1v-1h1V-53z M91.5-56h-1v-1h1V-56z M65.5-56h-1v-1h1V-56z M91.5-59h-1v-1h1V-59z M65.5-59h-1v-1
			h1V-59z M91.5-62h-1v-1h1V-62z M65.5-62h-1v-1h1V-62z M91.5-65h-1v-1h1V-65z M65.5-65h-1v-1h1V-65z M91.5-68h-1v-1h1V-68z
			 M65.5-68h-1v-1h1V-68z M91.5-71h-1v-1h1V-71z M65.5-71h-1v-1h1V-71z M91.5-74h-1v-1h1V-74z M65.5-74h-1v-1h1V-74z M91.5-77h-1v-1
			h1V-77z M65.5-77h-1v-1h1V-77z M89-77.5h-1v-1h1V-77.5z M86-77.5h-1v-1h1V-77.5z M83-77.5h-1v-1h1V-77.5z M80-77.5h-1v-1h1V-77.5z
			 M77-77.5h-1v-1h1V-77.5z M74-77.5h-1v-1h1V-77.5z M71-77.5h-1v-1h1V-77.5z M68-77.5h-1v-1h1V-77.5z"/>
	</g>
</g>
</svg>
