<?xml version="1.0" encoding="utf-8"?>
<!-- Generator: Adobe Illustrator 16.0.0, SVG Export Plug-In . SVG Version: 6.00 Build 0)  -->
<!DOCTYPE svg PUBLIC "-//W3C//DTD SVG 1.1//EN" "http://www.w3.org/Graphics/SVG/1.1/DTD/svg11.dtd">
<svg version="1.1" id="Livello_1" xmlns="http://www.w3.org/2000/svg" xmlns:xlink="http://www.w3.org/1999/xlink" x="0px" y="0px"
	 width="45.5px" height="45.5px" viewBox="53.5 24 45.5 45.5" enable-background="new 53.5 24 45.5 45.5" xml:space="preserve">
<g>
	<g>
		<polygon fill="#DCC264" points="83.346,46.485 78.449,46.485 78.449,41.589 77.051,41.589 77.051,46.485 72.156,46.485 
			72.156,47.883 77.051,47.883 77.051,52.778 78.449,52.778 78.449,47.883 83.346,47.883 		"/>
	</g>
	<g>
		<path fill="#DCC264" d="M77.07,63.668l-0.862-0.506l0.506-0.863l0.862,0.506L77.07,63.668z M79.301,62.863L78.795,62l0.863-0.506
			l0.506,0.863L79.301,62.863z M74.482,62.149l-0.862-0.506l0.506-0.863l0.862,0.506L74.482,62.149z M81.889,61.345l-0.506-0.861
			l0.862-0.507l0.506,0.861L81.889,61.345z M71.895,60.632l-0.862-0.506l0.506-0.863l0.862,0.506L71.895,60.632z M84.477,59.827
			l-0.506-0.863l0.862-0.506l0.506,0.863L84.477,59.827z M69.308,59.113l-0.862-0.506l0.506-0.863l0.862,0.506L69.308,59.113z
			 M87.063,58.31l-0.506-0.863l0.863-0.507l0.506,0.863L87.063,58.31z M66.72,57.596l-0.862-0.506l0.506-0.863l0.862,0.506
			L66.72,57.596z M89.651,56.791l-0.506-0.863l0.862-0.506l0.506,0.863L89.651,56.791z M64.132,56.077L63.5,55.706v-0.84h1v0.268
			l0.138,0.08L64.132,56.077z M91.5,54.276h-1v-1h1V54.276z M64.5,52.866h-1v-1h1V52.866z M91.5,51.276h-1v-1h1V51.276z
			 M64.5,49.866h-1v-1h1V49.866z M91.5,48.276h-1v-1h1V48.276z M64.5,46.866h-1v-1h1V46.866z M91.5,45.276h-1v-1h1V45.276z
			 M64.5,43.866h-1v-1h1V43.866z M91.5,42.276h-1v-1h1V42.276z M64.5,40.5h-1v-1h0.668l-0.421-0.535l0.862-0.414l0.506,0.909
			L64.5,39.866V40.5z M90.485,39.858l-0.862-0.506l0.506-0.863l0.862,0.506L90.485,39.858z M66.841,38.493l-0.506-0.861l0.862-0.507
			l0.506,0.861L66.841,38.493z M87.897,38.34l-0.862-0.506l0.506-0.863l0.862,0.506L87.897,38.34z M69.428,36.976l-0.506-0.863
			l0.863-0.506l0.506,0.863L69.428,36.976z M85.311,36.822l-0.863-0.506l0.506-0.863l0.863,0.506L85.311,36.822z M72.016,35.457
			l-0.506-0.861l0.862-0.507l0.506,0.861L72.016,35.457z M82.723,35.304l-0.862-0.506l0.506-0.863l0.862,0.506L82.723,35.304z
			 M74.604,33.939l-0.506-0.863l0.862-0.506l0.506,0.863L74.604,33.939z M80.135,33.786l-0.862-0.506l0.506-0.863l0.862,0.506
			L80.135,33.786z M77.19,32.422l-0.506-0.863l0.814-0.478l0.554,0.323l-0.351,0.601l0.051,0.087l-0.204,0.176l-0.048-0.028
			L77.19,32.422z"/>
	</g>
</g>
</svg>
