<?xml version="1.0" encoding="utf-8"?>
<!-- Generator: Adobe Illustrator 16.0.0, SVG Export Plug-In . SVG Version: 6.00 Build 0)  -->
<!DOCTYPE svg PUBLIC "-//W3C//DTD SVG 1.1//EN" "http://www.w3.org/Graphics/SVG/1.1/DTD/svg11.dtd">
<svg version="1.1" id="Livello_1" xmlns="http://www.w3.org/2000/svg" xmlns:xlink="http://www.w3.org/1999/xlink" x="0px" y="0px"
	 width="45.5px" height="45.5px" viewBox="-68.75 24 45.5 45.5" enable-background="new -68.75 24 45.5 45.5" xml:space="preserve">
<g>
	<g>
		<polygon fill="#6D8CBC" points="-39.655,47.485 -44.551,47.485 -44.551,42.589 -45.95,42.589 -45.95,47.485 -50.844,47.485 
			-50.844,48.883 -45.95,48.883 -45.95,53.778 -44.551,53.778 -44.551,48.883 -39.655,48.883 		"/>
	</g>
	<g>
		<path fill="#6D8CBC" d="M-37.016,63.5h-1v-1h1V63.5z M-40.016,63.5h-1v-1h1V63.5z M-43.016,63.5h-1v-1h1V63.5z M-46.016,63.5h-1
			v-1h1V63.5z M-49.016,63.5h-1v-1h1V63.5z M-52.016,63.5h-0.993l-0.007-1h1V63.5z M-55.15,63.079
			c-0.329-0.131-0.654-0.292-0.967-0.48l0.515-0.857c0.267,0.16,0.543,0.298,0.821,0.408L-55.15,63.079z M-34.865,63.029
			l-0.43-0.902c0.265-0.126,0.517-0.284,0.751-0.469l0.62,0.785C-34.216,62.674-34.533,62.871-34.865,63.029z M-57.761,61.22
			c-0.236-0.269-0.454-0.557-0.646-0.856l0.841-0.541c0.166,0.258,0.354,0.506,0.557,0.737L-57.761,61.22z M-32.516,60.784
			l-0.866-0.5c0.149-0.258,0.282-0.538,0.396-0.832l0.933,0.359C-32.186,60.154-32.341,60.48-32.516,60.784z M-59.278,58.4
			c-0.093-0.35-0.157-0.707-0.191-1.062l0.995-0.096c0.029,0.302,0.083,0.605,0.163,0.902L-59.278,58.4z M-31.558,57.749
			l-0.994-0.111c0.035-0.308,0.052-0.622,0.052-0.942V55.5h1v1.195C-31.5,57.055-31.52,57.406-31.558,57.749z M-58.5,55.291h-1v-1h1
			V55.291z M-31.5,53.728h-1v-1h1V53.728z M-58.5,52.291h-1v-1h1V52.291z M-31.5,50.728h-1v-1h1V50.728z M-58.5,49.291h-1v-1h1
			V49.291z M-31.5,47.728h-1v-1h1V47.728z M-58.5,46.291h-1v-1h1V46.291z M-31.5,44.728h-1v-1h1V44.728z M-58.5,43.291h-1v-1h1
			V43.291z M-31.5,41.728h-1v-1h1V41.728z M-58.5,40.291h-1v-1h1V40.291z M-31.5,38.728h-1v-0.423c0-0.184-0.006-0.365-0.018-0.545
			l0.998-0.064c0.013,0.201,0.02,0.404,0.02,0.609V38.728z M-58.423,37.379l-0.986-0.166c0.059-0.353,0.147-0.704,0.263-1.046
			l0.947,0.32C-58.298,36.778-58.373,37.078-58.423,37.379z M-32.856,35.919c-0.097-0.302-0.213-0.592-0.344-0.86l0.898-0.439
			c0.152,0.312,0.286,0.646,0.398,0.993L-32.856,35.919z M-57.347,34.858l-0.806-0.592c0.211-0.288,0.447-0.562,0.7-0.816
			l0.708,0.707C-56.962,34.375-57.165,34.61-57.347,34.858z M-34.258,33.589c-0.221-0.208-0.458-0.39-0.708-0.539l0.516-0.857
			c0.311,0.188,0.606,0.412,0.879,0.67L-34.258,33.589z M-55.264,33.07l-0.456-0.891c0.328-0.168,0.666-0.307,1.003-0.412
			l0.298,0.955C-54.702,32.811-54.986,32.928-55.264,33.07z M-36.635,32.515c-0.117-0.01-0.235-0.015-0.356-0.015h-0.602v-1h0.602
			c0.148,0,0.294,0.007,0.438,0.019L-36.635,32.515z M-39.593,32.5h-1v-1h1V32.5z M-42.593,32.5h-1v-1h1V32.5z M-45.593,32.5h-1v-1
			h1V32.5z M-48.593,32.5h-1v-1h1V32.5z M-51.593,32.5h-1v-1h1V32.5z"/>
	</g>
</g>
</svg>
