<?xml version="1.0" encoding="utf-8"?>
<!-- Generator: Adobe Illustrator 16.0.0, SVG Export Plug-In . SVG Version: 6.00 Build 0)  -->
<!DOCTYPE svg PUBLIC "-//W3C//DTD SVG 1.1//EN" "http://www.w3.org/Graphics/SVG/1.1/DTD/svg11.dtd">
<svg version="1.1" id="Livello_1" xmlns="http://www.w3.org/2000/svg" xmlns:xlink="http://www.w3.org/1999/xlink" x="0px" y="0px"
	 width="80.644px" height="24px" viewBox="-28.021 0 80.644 24" enable-background="new -28.021 0 80.644 24" xml:space="preserve">
<g>
	<g>
		<g>
			<path fill="#FFFFFF" d="M41.002,17.266c-2.902,0-5.264-2.362-5.264-5.266c0-2.903,2.361-5.265,5.264-5.265
				c2.904,0,5.267,2.362,5.267,5.265C46.269,14.903,43.906,17.266,41.002,17.266z M41.002,7.735c-2.351,0-4.264,1.913-4.264,4.265
				c0,2.353,1.913,4.266,4.264,4.266c2.353,0,4.267-1.913,4.267-4.266C45.269,9.648,43.354,7.735,41.002,7.735z"/>
		</g>
	</g>
	<g>
		<polygon fill="#FFFFFF" points="43.646,11.67 41.334,11.67 41.334,9.358 40.673,9.358 40.673,11.67 38.361,11.67 38.361,12.331 
			40.673,12.331 40.673,14.643 41.334,14.643 41.334,12.331 43.646,12.331 		"/>
	</g>
</g>
<g>
	<path fill="#FFFFFF" d="M40.439,21.5h-56.211c-5.454,0-9.727-4.173-9.727-9.5s4.272-9.5,9.727-9.5h56.211
		c5.455,0,9.729,4.173,9.729,9.5S45.895,21.5,40.439,21.5z M-15.771,3.5c-4.894,0-8.727,3.734-8.727,8.5
		c0,4.767,3.833,8.5,8.727,8.5h56.211c4.895,0,8.729-3.733,8.729-8.5c0-4.766-3.834-8.5-8.729-8.5H-15.771z"/>
</g>
<g>
	<path fill="#FFFFFF" d="M-9.404,14.643l-0.361-1.189h-1.822l-0.362,1.189h-1.142l1.764-5.018h1.295l1.771,5.018H-9.404z
		 M-10.02,12.564c-0.334-1.078-0.523-1.688-0.565-1.828c-0.042-0.142-0.072-0.254-0.091-0.336c-0.074,0.292-0.29,1.014-0.646,2.164
		H-10.02z"/>
	<path fill="#FFFFFF" d="M-5.736,11.836h1.982v2.592c-0.32,0.104-0.623,0.178-0.907,0.22c-0.283,0.042-0.573,0.063-0.87,0.063
		c-0.754,0-1.33-0.222-1.728-0.665s-0.597-1.079-0.597-1.909c0-0.807,0.231-1.436,0.692-1.887c0.462-0.451,1.102-0.676,1.919-0.676
		c0.514,0,1.008,0.102,1.484,0.307l-0.353,0.848c-0.364-0.182-0.744-0.273-1.138-0.273c-0.459,0-0.825,0.154-1.102,0.462
		c-0.275,0.308-0.413,0.722-0.413,1.241c0,0.542,0.111,0.956,0.333,1.242c0.223,0.286,0.545,0.429,0.969,0.429
		c0.222,0,0.446-0.022,0.674-0.068v-1.042h-0.947V11.836z"/>
	<path fill="#FFFFFF" d="M-0.668,11.836h1.982v2.592c-0.32,0.104-0.623,0.178-0.907,0.22c-0.283,0.042-0.573,0.063-0.87,0.063
		c-0.754,0-1.33-0.222-1.728-0.665s-0.597-1.079-0.597-1.909c0-0.807,0.231-1.436,0.692-1.887c0.462-0.451,1.102-0.676,1.919-0.676
		c0.514,0,1.008,0.102,1.484,0.307l-0.353,0.848c-0.364-0.182-0.744-0.273-1.138-0.273c-0.459,0-0.825,0.154-1.102,0.462
		c-0.275,0.308-0.413,0.722-0.413,1.241c0,0.542,0.111,0.956,0.333,1.242c0.223,0.286,0.545,0.429,0.969,0.429
		c0.222,0,0.446-0.022,0.674-0.068v-1.042h-0.947V11.836z"/>
	<path fill="#FFFFFF" d="M2.504,14.643V9.646h1.06v4.997H2.504z"/>
	<path fill="#FFFFFF" d="M8.89,9.646v3.233c0,0.369-0.083,0.692-0.248,0.971s-0.403,0.491-0.716,0.639
		c-0.312,0.148-0.682,0.223-1.107,0.223c-0.643,0-1.142-0.165-1.497-0.494s-0.533-0.779-0.533-1.352v-3.22h1.056v3.06
		c0,0.385,0.078,0.667,0.232,0.848c0.155,0.18,0.412,0.27,0.77,0.27c0.347,0,0.598-0.091,0.754-0.271
		c0.156-0.182,0.234-0.466,0.234-0.854V9.646H8.89z"/>
	<path fill="#FFFFFF" d="M14.547,14.643h-1.348l-2.174-3.78h-0.03c0.043,0.668,0.065,1.144,0.065,1.429v2.352h-0.947V9.646h1.336
		l2.171,3.743h0.024c-0.035-0.65-0.052-1.109-0.052-1.378V9.646h0.954V14.643z"/>
	<path fill="#FFFFFF" d="M17.7,11.836h1.982v2.592c-0.32,0.104-0.623,0.178-0.907,0.22c-0.283,0.042-0.573,0.063-0.87,0.063
		c-0.754,0-1.33-0.222-1.728-0.665s-0.597-1.079-0.597-1.909c0-0.807,0.231-1.436,0.692-1.887c0.462-0.451,1.102-0.676,1.919-0.676
		c0.514,0,1.008,0.102,1.484,0.307l-0.353,0.848c-0.364-0.182-0.744-0.273-1.138-0.273c-0.459,0-0.825,0.154-1.102,0.462
		c-0.275,0.308-0.413,0.722-0.413,1.241c0,0.542,0.111,0.956,0.333,1.242c0.223,0.286,0.545,0.429,0.969,0.429
		c0.222,0,0.446-0.022,0.674-0.068v-1.042H17.7V11.836z"/>
	<path fill="#FFFFFF" d="M20.873,14.643V9.646h1.06v4.997H20.873z"/>
</g>
</svg>
