<?xml version="1.0" encoding="utf-8"?>
<!-- Generator: Adobe Illustrator 16.0.0, SVG Export Plug-In . SVG Version: 6.00 Build 0)  -->
<!DOCTYPE svg PUBLIC "-//W3C//DTD SVG 1.1//EN" "http://www.w3.org/Graphics/SVG/1.1/DTD/svg11.dtd">
<svg version="1.1" id="Livello_1" xmlns="http://www.w3.org/2000/svg" xmlns:xlink="http://www.w3.org/1999/xlink" x="0px" y="0px"
	 width="24px" height="24px" viewBox="0 0 24 24" enable-background="new 0 0 24 24" xml:space="preserve">
<path opacity="0.8" fill="#858585" d="M18.013,5.161H6.469c-0.773,0-1.403,0.63-1.403,1.403v0.076v7.322v0.668
	c0,0.773,0.629,1.404,1.403,1.404h2.749c0.001,0.002,0.001,0.004,0.003,0.004l2.644,2.645c0.104,0.104,0.24,0.154,0.375,0.154
	s0.272-0.051,0.377-0.154l2.644-2.645c0.001,0,0.002-0.002,0.003-0.004h2.749c0.773,0,1.403-0.631,1.403-1.404v-0.074V7.233V6.564
	C19.416,5.791,18.787,5.161,18.013,5.161z M14.099,10.426c0,1.024-0.834,1.858-1.859,1.858c-1.024,0-1.857-0.834-1.857-1.859
	c0-1.024,0.833-1.858,1.858-1.858C13.266,8.567,14.099,9.4,14.099,10.426z M12.24,17.555l-1.518-1.52h3.038L12.24,17.555z
	 M12.24,14.184c-2.072,0-3.757-1.687-3.757-3.759s1.686-3.757,3.757-3.757c0.129,0,0.257,0.007,0.384,0.02
	c0.244,0.024,0.422,0.242,0.398,0.485c-0.025,0.245-0.245,0.426-0.487,0.398c-0.099-0.01-0.195-0.015-0.295-0.015
	c-1.582,0-2.869,1.287-2.869,2.869c0,1.583,1.287,2.87,2.869,2.87c1.583,0,2.87-1.288,2.87-2.87c0-0.245,0.199-0.444,0.444-0.444
	c0.244,0,0.443,0.199,0.443,0.444C15.998,12.497,14.313,14.184,12.24,14.184z"/>
</svg>
