<?xml version="1.0" encoding="utf-8"?>
<!-- Generator: Adobe Illustrator 16.0.0, SVG Export Plug-In . SVG Version: 6.00 Build 0)  -->
<!DOCTYPE svg PUBLIC "-//W3C//DTD SVG 1.1//EN" "http://www.w3.org/Graphics/SVG/1.1/DTD/svg11.dtd">
<svg version="1.1" id="Livello_1" xmlns="http://www.w3.org/2000/svg" xmlns:xlink="http://www.w3.org/1999/xlink" x="0px" y="0px"
	 width="24px" height="24px" viewBox="0 0 24 24" enable-background="new 0 0 24 24" xml:space="preserve">
<g>
	<g>
		<g>
			<path fill="#FFFFFF" d="M12.078,22.188c-5.574,0-10.108-4.535-10.108-10.109C1.97,6.505,6.504,1.97,12.078,1.97
				c5.574,0,10.109,4.535,10.109,10.108C22.188,17.652,17.652,22.188,12.078,22.188z M12.078,3.89c-4.516,0-8.188,3.673-8.188,8.188
				c0,4.517,3.673,8.188,8.188,8.188c4.517,0,8.188-3.672,8.188-8.188C20.267,7.562,16.595,3.89,12.078,3.89z"/>
		</g>
	</g>
	<g>
		<polygon fill="#FFFFFF" points="17.15,11.444 12.713,11.444 12.713,7.006 11.442,7.006 11.442,11.444 7.006,11.444 7.006,12.713 
			11.442,12.713 11.442,17.15 12.713,17.15 12.713,12.713 17.15,12.713 		"/>
	</g>
</g>
<path fill="none" d="M0,0h24v24H0V0z"/>
</svg>
