<?xml version="1.0" encoding="utf-8"?>
<!-- Generator: Adobe Illustrator 16.0.0, SVG Export Plug-In . SVG Version: 6.00 Build 0)  -->
<!DOCTYPE svg PUBLIC "-//W3C//DTD SVG 1.1//EN" "http://www.w3.org/Graphics/SVG/1.1/DTD/svg11.dtd">
<svg version="1.1" id="Livello_1" xmlns="http://www.w3.org/2000/svg" xmlns:xlink="http://www.w3.org/1999/xlink" x="0px" y="0px"
	 width="24px" height="24px" viewBox="0 0 24 24" enable-background="new 0 0 24 24" xml:space="preserve">
<g>
	<path fill="#929292" d="M8.494,15.25V19c0,0.965,0.785,1.75,1.75,1.75h10.161c0.965,0,1.75-0.785,1.75-1.75V5
		c0-0.965-0.785-1.75-1.75-1.75H10.244c-0.965,0-1.75,0.785-1.75,1.75v3.75h1.5v-4h10.661v14.5H9.994v-4H8.494z"/>
</g>
<circle fill="#929292" stroke="#FFFFFF" stroke-width="0.25" stroke-miterlimit="10" cx="3.836" cy="7.354" r="2.117"/>
<g>
	<path fill="#929292" d="M11.963,15.59l1.058,1.057L17.667,12l-4.646-4.646l-1.058,1.057l2.829,2.839H4.395l0.376,1.5h10.021
		L11.963,15.59z"/>
</g>
<g>
	<path fill="#929292" d="M8.494,12.744l-3.895-1.5v-4h-1.5v3.75c0,0.965,0.785,1.75,1.75,1.75h3.515"/>
</g>
</svg>
