<?xml version="1.0" encoding="utf-8"?>
<!-- Generator: Adobe Illustrator 16.0.0, SVG Export Plug-In . SVG Version: 6.00 Build 0)  -->
<!DOCTYPE svg PUBLIC "-//W3C//DTD SVG 1.1//EN" "http://www.w3.org/Graphics/SVG/1.1/DTD/svg11.dtd">
<svg version="1.1" id="Livello_1" xmlns="http://www.w3.org/2000/svg" xmlns:xlink="http://www.w3.org/1999/xlink" x="0px" y="0px"
	 width="25.75px" height="25.75px" viewBox="0 0 25.75 25.75" enable-background="new 0 0 25.75 25.75" xml:space="preserve">
<g>
	<path fill="#929292" d="M12.552,1.869c-6.237,0-11.311,5.074-11.311,11.311c0,6.238,5.074,11.312,11.311,11.312
		c6.236,0,11.311-5.074,11.311-11.312C23.862,6.943,18.788,1.869,12.552,1.869z M12.552,23.539c-5.711,0-10.358-4.646-10.358-10.359
		c0-5.711,4.647-10.358,10.358-10.358c5.712,0,10.357,4.647,10.357,10.358C22.909,18.893,18.264,23.539,12.552,23.539z"/>
	<path fill="#929292" d="M15.076,10.487c1.215,0,2.201-0.985,2.201-2.2c0-1.216-0.986-2.201-2.201-2.201s-2.201,0.985-2.201,2.201
		c0,0.251,0.051,0.488,0.128,0.713l-4.051,2.604c-0.396-0.385-0.936-0.625-1.532-0.625c-1.215,0-2.201,0.985-2.201,2.201
		c0,1.215,0.986,2.2,2.201,2.2c0.597,0,1.136-0.239,1.533-0.625l4.06,2.611c-0.083,0.232-0.137,0.479-0.137,0.741
		c0,1.215,0.986,2.2,2.201,2.2s2.201-0.985,2.201-2.2c0-1.216-0.986-2.201-2.201-2.201c-0.559,0-1.063,0.215-1.451,0.559
		l-4.111-2.642c0.063-0.205,0.107-0.418,0.107-0.644c0-0.225-0.044-0.438-0.106-0.643l4.088-2.626
		C13.993,10.266,14.507,10.487,15.076,10.487z"/>
</g>
</svg>
