<?xml version="1.0" encoding="utf-8"?>
<!-- Generator: Adobe Illustrator 16.0.0, SVG Export Plug-In . SVG Version: 6.00 Build 0)  -->
<!DOCTYPE svg PUBLIC "-//W3C//DTD SVG 1.1//EN" "http://www.w3.org/Graphics/SVG/1.1/DTD/svg11.dtd">
<svg version="1.1" id="Livello_1" xmlns="http://www.w3.org/2000/svg" xmlns:xlink="http://www.w3.org/1999/xlink" x="0px" y="0px"
	 width="25.625px" height="25.625px" viewBox="0 0 25.625 25.625" enable-background="new 0 0 25.625 25.625" xml:space="preserve">
<g>
	<path fill="#FFFFFF" d="M12.766,15.216h-0.037l-2.15-6.944h-2.62v9.081h1.72v-4.224c0-0.484-0.038-1.45-0.117-2.901h0.055
		l2.188,7.125h1.764l2.342-7.112h0.057c-0.051,1.144-0.077,1.848-0.084,2.112c-0.006,0.266-0.01,0.5-0.01,0.702v4.298h1.795V8.271
		h-2.621L12.766,15.216z"/>
	<path fill="#FFFFFF" d="M22.812,12.828l1.501-0.016c0-1.509-0.289-2.979-0.858-4.366l-1.393,0.571
		c-0.503-1.223-1.238-2.325-2.155-3.249l1.065-1.058c-1.07-1.079-2.321-1.923-3.717-2.508l-0.58,1.385
		c-1.183-0.496-2.48-0.771-3.842-0.774l-0.021-1.501c-1.523,0-3.004,0.294-4.4,0.873l0.576,1.389
		C7.768,4.081,6.667,4.819,5.746,5.739L4.686,4.678C3.611,5.751,2.771,7.005,2.19,8.402l1.387,0.577
		c-0.49,1.18-0.764,2.472-0.765,3.828l-1.5,0.005c0,1.516,0.292,2.992,0.867,4.388l1.391-0.574c0.505,1.222,1.243,2.323,2.162,3.244
		l-1.063,1.06c1.074,1.078,2.327,1.919,3.724,2.5l0.576-1.386c1.182,0.492,2.476,0.767,3.834,0.769l0.01,1.5
		c1.516,0,2.989-0.291,4.379-0.864l-0.574-1.391c1.223-0.504,2.324-1.24,3.246-2.158l1.059,1.064
		c1.078-1.072,1.921-2.324,2.504-3.72l-1.386-0.579C22.535,15.483,22.81,14.188,22.812,12.828z M12.812,20.812c-4.42,0-8-3.58-8-8
		s3.58-8,8-8s8,3.58,8,8S17.232,20.812,12.812,20.812z"/>
</g>
</svg>
