<?xml version="1.0" encoding="utf-8"?>
<!-- Generator: Adobe Illustrator 16.0.0, SVG Export Plug-In . SVG Version: 6.00 Build 0)  -->
<!DOCTYPE svg PUBLIC "-//W3C//DTD SVG 1.1//EN" "http://www.w3.org/Graphics/SVG/1.1/DTD/svg11.dtd">
<svg version="1.1" id="Livello_1" xmlns="http://www.w3.org/2000/svg" xmlns:xlink="http://www.w3.org/1999/xlink" x="0px" y="0px"
	 width="24px" height="24px" viewBox="0 0 24 24" enable-background="new 0 0 24 24" xml:space="preserve">
<g>
	<g>
		<path fill="#858585" d="M10.991,16.54L8.805,9.415H8.749c0.079,1.451,0.117,2.417,0.117,2.901v4.224h-1.72V7.459h2.621
			l2.149,6.944h0.037l2.279-6.944h2.622v9.081H15.06v-4.298c0-0.202,0.004-0.437,0.01-0.702c0.007-0.265,0.034-0.969,0.084-2.112
			h-0.057l-2.342,7.112H10.991z"/>
	</g>
	<path fill="#858585" d="M12.001,2c-5.52,0-10,4.479-10,10c0,5.52,4.48,10,10,10s10-4.48,10-10C22.001,6.479,17.521,2,12.001,2z
		 M12.001,20c-4.42,0-8-3.58-8-8s3.58-8,8-8s8,3.58,8,8S16.421,20,12.001,20z"/>
</g>
</svg>
