<?xml version="1.0" encoding="utf-8"?>
<!-- Generator: Adobe Illustrator 16.0.0, SVG Export Plug-In . SVG Version: 6.00 Build 0)  -->
<!DOCTYPE svg PUBLIC "-//W3C//DTD SVG 1.1//EN" "http://www.w3.org/Graphics/SVG/1.1/DTD/svg11.dtd">
<svg version="1.1" id="Livello_1" xmlns="http://www.w3.org/2000/svg" xmlns:xlink="http://www.w3.org/1999/xlink" x="0px" y="0px"
	 width="24px" height="24px" viewBox="0 0 24 24" enable-background="new 0 0 24 24" xml:space="preserve">
<path fill="#FFB237" d="M0.625,12C0.625,5.717,5.718,0.625,12,0.625l0,0c6.282,0,11.375,5.093,11.375,11.375l0,0
	c0,6.282-5.093,11.375-11.375,11.375l0,0C5.718,23.375,0.625,18.281,0.625,12L0.625,12z"/>
<g>
	<g>
		<path fill="#FFFFFF" d="M10.992,16.54L8.806,9.415H8.75c0.079,1.451,0.117,2.417,0.117,2.901v4.224h-1.72V7.459h2.621l2.149,6.943
			h0.037l2.278-6.943h2.623v9.081h-1.797v-4.298c0-0.202,0.004-0.437,0.01-0.702c0.008-0.265,0.035-0.969,0.084-2.112h-0.057
			l-2.342,7.112H10.992z"/>
	</g>
	<path fill="#FFFFFF" d="M12.002,2c-5.52,0-10,4.479-10,10c0,5.52,4.48,10,10,10c5.52,0,10-4.48,10-10
		C22.002,6.479,17.521,2,12.002,2z M12.002,20c-4.42,0-8-3.58-8-8s3.58-8,8-8s8,3.58,8,8S16.422,20,12.002,20z"/>
</g>
</svg>
