<?xml version="1.0" encoding="utf-8"?>
<!-- Generator: Adobe Illustrator 16.0.0, SVG Export Plug-In . SVG Version: 6.00 Build 0)  -->
<!DOCTYPE svg PUBLIC "-//W3C//DTD SVG 1.1//EN" "http://www.w3.org/Graphics/SVG/1.1/DTD/svg11.dtd">
<svg version="1.1" id="Livello_1" xmlns="http://www.w3.org/2000/svg" xmlns:xlink="http://www.w3.org/1999/xlink" x="0px" y="0px"
	 width="24px" height="24px" viewBox="0 0 24 24" enable-background="new 0 0 24 24" xml:space="preserve">
<g>
	<g>
		<path fill="#FFFFFF" d="M10.99,16.54L8.804,9.415H8.748c0.079,1.451,0.117,2.417,0.117,2.901v4.224h-1.72V7.459h2.621l2.149,6.944
			h0.037l2.279-6.944h2.622v9.081h-1.796v-4.298c0-0.202,0.004-0.437,0.01-0.702c0.007-0.265,0.034-0.969,0.084-2.112h-0.057
			l-2.342,7.112H10.99z"/>
	</g>
	<path fill="#FFFFFF" d="M12,2C6.48,2,2,6.479,2,12c0,5.52,4.48,10,10,10s10-4.48,10-10C22,6.479,17.52,2,12,2z M12,20
		c-4.42,0-8-3.58-8-8s3.58-8,8-8s8,3.58,8,8S16.42,20,12,20z"/>
</g>
</svg>
