<?xml version="1.0" encoding="utf-8"?>
<!-- Generator: Adobe Illustrator 16.0.0, SVG Export Plug-In . SVG Version: 6.00 Build 0)  -->
<!DOCTYPE svg PUBLIC "-//W3C//DTD SVG 1.1//EN" "http://www.w3.org/Graphics/SVG/1.1/DTD/svg11.dtd">
<svg version="1.1" id="Livello_1" xmlns="http://www.w3.org/2000/svg" xmlns:xlink="http://www.w3.org/1999/xlink" x="0px" y="0px"
	 width="50px" height="50px" viewBox="0 0 39.73 39.73" enable-background="new 0 0 39.73 39.73" xml:space="preserve">
<g>
	<path fill="#00E1BB" d="M9.192,10.232c-2.408,0-4.367,1.958-4.367,4.365c0,2.41,1.959,4.367,4.367,4.367
		c2.407,0,4.366-1.958,4.366-4.367C13.558,12.19,11.599,10.232,9.192,10.232 M9.192,20.904c-3.478,0-6.308-2.83-6.308-6.307
		c0-3.477,2.83-6.306,6.308-6.306c3.478,0,6.307,2.83,6.307,6.306C15.499,18.074,12.669,20.904,9.192,20.904"/>
	<path fill="#FFA51F" d="M26.173,29.638h8.732v-8.732h-8.732V29.638z M35.876,31.58H25.203c-0.537,0-0.969-0.436-0.969-0.971V19.935
		c0-0.538,0.432-0.971,0.969-0.971h10.674c0.535,0,0.971,0.433,0.971,0.971v10.674C36.847,31.144,36.412,31.58,35.876,31.58"/>
	<path fill="#8F8F8F" d="M30.539,26.242c-0.145,0-0.293-0.031-0.434-0.102L8.758,15.465c-0.479-0.241-0.674-0.823-0.434-1.301
		c0.24-0.48,0.822-0.674,1.302-0.435l21.349,10.674c0.479,0.24,0.674,0.822,0.432,1.303C31.236,26.046,30.896,26.242,30.539,26.242"
		/>
</g>
</svg>
