<?xml version="1.0" encoding="utf-8"?>
<!-- Generator: Adobe Illustrator 16.0.0, SVG Export Plug-In . SVG Version: 6.00 Build 0)  -->
<!DOCTYPE svg PUBLIC "-//W3C//DTD SVG 1.1//EN" "http://www.w3.org/Graphics/SVG/1.1/DTD/svg11.dtd">
<svg version="1.1" id="Livello_1" xmlns="http://www.w3.org/2000/svg" xmlns:xlink="http://www.w3.org/1999/xlink" x="0px" y="0px"
	 width="39.73px" height="40px" viewBox="0 0 39.73 55.49" enable-background="new 0 0 39.73 55.49" xml:space="preserve">
<g>
	<path fill="#00E1BB" d="M9.192,10.232c-2.408,0-4.367,1.958-4.367,4.365c0,2.409,1.959,4.366,4.367,4.366
		c2.407,0,4.366-1.958,4.366-4.366C13.558,12.19,11.599,10.232,9.192,10.232 M9.192,20.904c-3.479,0-6.309-2.83-6.309-6.307
		c0-3.478,2.83-6.307,6.309-6.307c3.478,0,6.307,2.83,6.307,6.307S12.669,20.904,9.192,20.904"/>
	<path fill="#FFA51F" d="M26.173,29.638h8.732v-8.732h-8.732V29.638z M35.876,31.58H25.203c-0.537,0-0.969-0.436-0.969-0.971V19.935
		c0-0.538,0.432-0.972,0.969-0.972h10.674c0.535,0,0.972,0.434,0.972,0.972v10.674C36.847,31.144,36.412,31.58,35.876,31.58"/>
	<path fill="#8F8F8F" d="M30.539,26.242c-0.145,0-0.293-0.031-0.434-0.102L8.758,15.465c-0.479-0.24-0.674-0.822-0.434-1.301
		c0.24-0.479,0.822-0.674,1.302-0.435l21.35,10.674c0.479,0.24,0.674,0.822,0.432,1.303C31.236,26.046,30.896,26.242,30.539,26.242"
		/>
</g>
<g>
	<g>
		<defs>
			<rect id="SVGID_1_" x="2.884" y="8.291" width="33.968" height="40.42"/>
		</defs>
		<clipPath id="SVGID_2_">
			<use xlink:href="#SVGID_1_"  overflow="visible"/>
		</clipPath>
		<path clip-path="url(#SVGID_2_)" fill="#8F8F8F" d="M4.272,35.071h0.676l0.065,0.555h0.025c0.196-0.201,0.393-0.358,0.591-0.477
			c0.199-0.115,0.412-0.175,0.64-0.175c0.549,0,0.916,0.244,1.101,0.734c0.223-0.24,0.436-0.42,0.641-0.547
			c0.204-0.124,0.422-0.187,0.656-0.187c0.407,0,0.714,0.135,0.917,0.403c0.204,0.27,0.306,0.659,0.306,1.171v2.509H9.066v-2.404
			c0-0.341-0.053-0.588-0.159-0.74c-0.105-0.153-0.276-0.229-0.51-0.229c-0.271,0-0.573,0.182-0.905,0.546v2.827H6.669v-2.403
			c0-0.342-0.053-0.589-0.159-0.741c-0.105-0.152-0.276-0.228-0.509-0.228c-0.272,0-0.573,0.181-0.905,0.546v2.827H4.272V35.071
			L4.272,35.071z"/>
	</g>
	<g>
		<defs>
			<rect id="SVGID_3_" x="2.884" y="8.291" width="33.968" height="40.42"/>
		</defs>
		<clipPath id="SVGID_4_">
			<use xlink:href="#SVGID_3_"  overflow="visible"/>
		</clipPath>
		<path clip-path="url(#SVGID_4_)" fill="#8F8F8F" d="M10.777,40.647l0.155-0.643c0.125,0.038,0.222,0.058,0.293,0.058
			c0.392,0,0.671-0.254,0.839-0.759l0.082-0.27l-1.581-3.96h0.839l0.742,2.062l0.245,0.741l0.122,0.382h0.033
			c0.059-0.195,0.105-0.363,0.137-0.505l0.181-0.619l0.644-2.062h0.799l-1.468,4.229c-0.167,0.468-0.372,0.823-0.61,1.064
			c-0.24,0.241-0.558,0.361-0.955,0.361C11.094,40.729,10.928,40.702,10.777,40.647"/>
	</g>
	<g>
		<defs>
			<rect id="SVGID_5_" x="2.884" y="8.291" width="33.968" height="40.42"/>
		</defs>
		<clipPath id="SVGID_6_">
			<use xlink:href="#SVGID_5_"  overflow="visible"/>
		</clipPath>
		<path clip-path="url(#SVGID_6_)" fill="#8F8F8F" d="M16.662,33.278h0.823v1.533l-0.033,0.791c0.207-0.195,0.413-0.35,0.617-0.461
			c0.203-0.11,0.43-0.167,0.68-0.167c0.814,0,1.222,0.524,1.222,1.572v2.512h-0.823v-2.405c0-0.341-0.053-0.588-0.159-0.74
			c-0.105-0.152-0.279-0.228-0.518-0.228c-0.179,0-0.34,0.042-0.482,0.125c-0.141,0.085-0.309,0.224-0.504,0.42v2.828h-0.824
			L16.662,33.278L16.662,33.278z"/>
	</g>
	<g>
		<defs>
			<rect id="SVGID_7_" x="2.884" y="8.291" width="33.968" height="40.42"/>
		</defs>
		<clipPath id="SVGID_8_">
			<use xlink:href="#SVGID_7_"  overflow="visible"/>
		</clipPath>
		<path clip-path="url(#SVGID_8_)" fill="#8F8F8F" d="M23.508,38.093c0.186-0.258,0.278-0.599,0.278-1.023s-0.095-0.765-0.281-1.026
			c-0.188-0.261-0.436-0.391-0.746-0.391c-0.309,0-0.559,0.13-0.746,0.391c-0.188,0.262-0.281,0.603-0.281,1.026
			c0,0.425,0.092,0.766,0.276,1.023c0.185,0.26,0.436,0.389,0.751,0.389S23.324,38.352,23.508,38.093 M21.83,38.903
			c-0.289-0.167-0.519-0.408-0.689-0.724c-0.171-0.316-0.257-0.686-0.257-1.11c0-0.428,0.086-0.802,0.257-1.116
			c0.171-0.316,0.399-0.558,0.685-0.726c0.286-0.168,0.596-0.253,0.934-0.253c0.335,0,0.647,0.085,0.933,0.253
			c0.284,0.168,0.514,0.409,0.686,0.726c0.171,0.314,0.256,0.688,0.256,1.116c0,0.425-0.085,0.794-0.256,1.11
			c-0.172,0.315-0.402,0.557-0.689,0.724c-0.287,0.168-0.598,0.254-0.929,0.254C22.427,39.157,22.118,39.071,21.83,38.903"/>
	</g>
	<g>
		<defs>
			<rect id="SVGID_9_" x="2.884" y="8.291" width="33.968" height="40.42"/>
		</defs>
		<clipPath id="SVGID_10_">
			<use xlink:href="#SVGID_9_"  overflow="visible"/>
		</clipPath>
		<path clip-path="url(#SVGID_10_)" fill="#8F8F8F" d="M25.611,35.071h0.677l0.066,0.555h0.024c0.193-0.201,0.391-0.358,0.59-0.477
			c0.198-0.115,0.412-0.175,0.641-0.175c0.549,0,0.915,0.244,1.101,0.734c0.222-0.24,0.436-0.42,0.64-0.547
			c0.204-0.124,0.421-0.187,0.656-0.187c0.408,0,0.713,0.135,0.916,0.403c0.204,0.27,0.307,0.659,0.307,1.171v2.509h-0.824v-2.404
			c0-0.341-0.053-0.588-0.158-0.74c-0.105-0.153-0.275-0.229-0.509-0.229c-0.273,0-0.573,0.182-0.905,0.546v2.827h-0.825v-2.403
			c0-0.342-0.053-0.589-0.158-0.741s-0.276-0.228-0.51-0.228c-0.271,0-0.571,0.181-0.903,0.546v2.827h-0.824V35.071z"/>
	</g>
	<g>
		<defs>
			<rect id="SVGID_11_" x="2.884" y="8.291" width="33.968" height="40.42"/>
		</defs>
		<clipPath id="SVGID_12_">
			<use xlink:href="#SVGID_11_"  overflow="visible"/>
		</clipPath>
		<path clip-path="url(#SVGID_12_)" fill="#8F8F8F" d="M34.88,36.711c0-0.348-0.075-0.618-0.228-0.807
			c-0.153-0.19-0.374-0.285-0.662-0.285c-0.249,0-0.472,0.092-0.667,0.277c-0.197,0.185-0.321,0.456-0.376,0.814H34.88z
			 M35.563,37.281H32.93c0.039,0.403,0.175,0.708,0.412,0.918c0.236,0.211,0.523,0.313,0.859,0.313c0.32,0,0.639-0.101,0.953-0.301
			l0.286,0.522c-0.425,0.281-0.871,0.423-1.344,0.423c-0.366,0-0.694-0.084-0.988-0.254c-0.294-0.166-0.525-0.408-0.696-0.724
			c-0.171-0.316-0.257-0.686-0.257-1.109c0-0.419,0.086-0.787,0.257-1.105c0.171-0.316,0.395-0.561,0.673-0.732
			c0.276-0.171,0.572-0.257,0.889-0.257c0.516,0,0.916,0.17,1.197,0.509c0.282,0.341,0.425,0.799,0.425,1.374
			C35.596,37.011,35.585,37.15,35.563,37.281"/>
	</g>
	<g>
		<defs>
			<rect id="SVGID_13_" x="2.884" y="8.291" width="33.968" height="40.42"/>
		</defs>
		<clipPath id="SVGID_14_">
			<use xlink:href="#SVGID_13_"  overflow="visible"/>
		</clipPath>
		<path clip-path="url(#SVGID_14_)" fill="#8F8F8F" d="M5.943,46.25c0.146-0.076,0.31-0.195,0.488-0.358v-0.985
			c-0.576,0.069-0.985,0.178-1.226,0.325c-0.242,0.146-0.363,0.336-0.363,0.569c0,0.185,0.057,0.326,0.17,0.421
			c0.115,0.095,0.266,0.142,0.457,0.142C5.639,46.363,5.797,46.326,5.943,46.25 M4.369,46.704c-0.217-0.211-0.326-0.491-0.326-0.845
			c0-0.43,0.191-0.76,0.571-0.991c0.379-0.231,0.986-0.392,1.816-0.485c-0.009-0.586-0.265-0.878-0.765-0.878
			c-0.338,0-0.721,0.135-1.149,0.405l-0.31-0.553c0.543-0.348,1.079-0.522,1.605-0.522c0.485,0,0.846,0.144,1.085,0.437
			c0.238,0.291,0.358,0.708,0.358,1.251v2.396H6.579l-0.065-0.456H6.489c-0.44,0.369-0.863,0.554-1.272,0.554
			C4.87,47.016,4.587,46.914,4.369,46.704"/>
	</g>
	<g>
		<defs>
			<rect id="SVGID_15_" x="2.884" y="8.291" width="33.968" height="40.42"/>
		</defs>
		<clipPath id="SVGID_16_">
			<use xlink:href="#SVGID_15_"  overflow="visible"/>
		</clipPath>
		<path clip-path="url(#SVGID_16_)" fill="#8F8F8F" d="M10.372,44.888c0.145-0.157,0.217-0.366,0.217-0.628
			c0-0.26-0.072-0.466-0.217-0.618c-0.143-0.152-0.324-0.229-0.542-0.229c-0.218,0-0.398,0.076-0.542,0.229
			c-0.144,0.152-0.217,0.358-0.217,0.618c0,0.262,0.073,0.471,0.217,0.628c0.143,0.157,0.324,0.236,0.542,0.236
			C10.048,45.125,10.228,45.046,10.372,44.888 M10.528,48.068c0.176-0.066,0.313-0.155,0.412-0.265
			c0.099-0.112,0.147-0.23,0.147-0.355c0-0.163-0.062-0.277-0.185-0.343c-0.122-0.064-0.308-0.096-0.557-0.096H9.734
			c-0.202,0-0.377-0.021-0.53-0.057c-0.233,0.172-0.351,0.367-0.351,0.585c0,0.195,0.096,0.35,0.286,0.46
			c0.19,0.112,0.453,0.167,0.791,0.167C10.152,48.165,10.351,48.132,10.528,48.068 M8.608,48.439
			c-0.304-0.183-0.457-0.442-0.457-0.779c0-0.168,0.05-0.327,0.151-0.478c0.101-0.149,0.243-0.281,0.427-0.394v-0.033
			c-0.238-0.151-0.356-0.372-0.356-0.66c0-0.146,0.042-0.284,0.126-0.415c0.084-0.13,0.188-0.239,0.313-0.325v-0.034
			c-0.147-0.113-0.271-0.263-0.371-0.447c-0.101-0.186-0.15-0.389-0.15-0.612c0-0.287,0.068-0.541,0.208-0.756
			c0.139-0.22,0.326-0.385,0.562-0.498c0.237-0.114,0.494-0.172,0.771-0.172c0.206,0,0.398,0.032,0.578,0.098h1.41v0.62h-0.767
			c0.083,0.087,0.147,0.194,0.196,0.321c0.049,0.129,0.073,0.264,0.073,0.413c0,0.422-0.14,0.756-0.423,1.003
			c-0.283,0.244-0.639,0.366-1.067,0.366c-0.196,0-0.384-0.041-0.562-0.122c-0.072,0.064-0.125,0.128-0.164,0.19
			c-0.038,0.062-0.056,0.141-0.056,0.233c0,0.125,0.05,0.222,0.154,0.29c0.104,0.066,0.274,0.1,0.514,0.1h0.742
			c0.479,0,0.835,0.08,1.072,0.238c0.236,0.156,0.354,0.401,0.354,0.733c0,0.256-0.086,0.49-0.257,0.701
			c-0.172,0.212-0.415,0.38-0.73,0.505c-0.315,0.125-0.68,0.188-1.093,0.188C9.312,48.712,8.912,48.62,8.608,48.439"/>
	</g>
	<g>
		<defs>
			<rect id="SVGID_17_" x="2.884" y="8.291" width="33.968" height="40.42"/>
		</defs>
		<clipPath id="SVGID_18_">
			<use xlink:href="#SVGID_17_"  overflow="visible"/>
		</clipPath>
		<path clip-path="url(#SVGID_18_)" fill="#8F8F8F" d="M14.942,44.572c0-0.35-0.077-0.618-0.229-0.809
			c-0.153-0.19-0.372-0.284-0.661-0.284c-0.251,0-0.472,0.093-0.669,0.277c-0.195,0.185-0.319,0.456-0.374,0.815H14.942z
			 M15.626,45.142h-2.632c0.038,0.402,0.176,0.707,0.412,0.915c0.236,0.209,0.522,0.315,0.859,0.315c0.32,0,0.638-0.103,0.954-0.302
			l0.285,0.521c-0.425,0.285-0.872,0.426-1.345,0.426c-0.364,0-0.692-0.084-0.986-0.255c-0.293-0.168-0.525-0.41-0.696-0.724
			c-0.171-0.316-0.258-0.684-0.258-1.109c0-0.418,0.086-0.787,0.258-1.104c0.171-0.316,0.396-0.562,0.671-0.733
			c0.278-0.172,0.574-0.258,0.89-0.258c0.516,0,0.916,0.17,1.198,0.511c0.283,0.337,0.424,0.795,0.424,1.371
			C15.658,44.87,15.648,45.01,15.626,45.142"/>
	</g>
	<g>
		<defs>
			<rect id="SVGID_19_" x="2.884" y="8.291" width="33.968" height="40.42"/>
		</defs>
		<clipPath id="SVGID_20_">
			<use xlink:href="#SVGID_19_"  overflow="visible"/>
		</clipPath>
		<path clip-path="url(#SVGID_20_)" fill="#8F8F8F" d="M16.589,42.933h0.676l0.066,0.553h0.024c0.212-0.207,0.422-0.366,0.632-0.479
			c0.208-0.115,0.438-0.172,0.688-0.172c0.815,0,1.224,0.524,1.224,1.574v2.51h-0.824v-2.403c0-0.344-0.053-0.591-0.16-0.742
			c-0.105-0.152-0.278-0.229-0.518-0.229c-0.179,0-0.339,0.042-0.481,0.127c-0.141,0.084-0.31,0.224-0.506,0.418v2.829h-0.822
			V42.933z"/>
	</g>
	<g>
		<defs>
			<rect id="SVGID_21_" x="2.884" y="8.291" width="33.968" height="40.42"/>
		</defs>
		<clipPath id="SVGID_22_">
			<use xlink:href="#SVGID_21_"  overflow="visible"/>
		</clipPath>
		<path clip-path="url(#SVGID_22_)" fill="#8F8F8F" d="M23.15,46.214c0.146-0.079,0.293-0.201,0.439-0.371v-1.956
			c-0.272-0.244-0.564-0.367-0.881-0.367c-0.188,0-0.362,0.057-0.517,0.17c-0.155,0.115-0.277,0.277-0.365,0.489
			c-0.091,0.212-0.137,0.459-0.137,0.741c0,0.453,0.085,0.799,0.258,1.044c0.171,0.246,0.413,0.367,0.729,0.367
			C22.845,46.332,23.003,46.293,23.15,46.214 M21.288,46.463c-0.298-0.369-0.446-0.88-0.446-1.534c0-0.417,0.079-0.786,0.237-1.103
			c0.157-0.317,0.367-0.563,0.628-0.734c0.261-0.172,0.541-0.257,0.839-0.257c0.213,0,0.4,0.036,0.563,0.109
			s0.334,0.187,0.514,0.338l-0.033-0.66v-1.484h0.823v5.78h-0.677l-0.065-0.449h-0.024c-0.162,0.164-0.345,0.294-0.546,0.396
			c-0.201,0.101-0.407,0.149-0.621,0.149C21.982,47.015,21.585,46.832,21.288,46.463"/>
	</g>
	<g>
		<defs>
			<rect id="SVGID_23_" x="2.884" y="8.291" width="33.968" height="40.42"/>
		</defs>
		<clipPath id="SVGID_24_">
			<use xlink:href="#SVGID_23_"  overflow="visible"/>
		</clipPath>
		<path clip-path="url(#SVGID_24_)" fill="#8F8F8F" d="M27.34,46.25c0.146-0.076,0.31-0.195,0.489-0.358v-0.985
			c-0.577,0.069-0.985,0.178-1.227,0.325c-0.243,0.146-0.363,0.336-0.363,0.569c0,0.185,0.058,0.326,0.171,0.421
			c0.114,0.095,0.267,0.142,0.456,0.142C27.035,46.363,27.192,46.326,27.34,46.25 M25.766,46.704
			c-0.219-0.211-0.327-0.491-0.327-0.845c0-0.43,0.191-0.76,0.571-0.991s0.986-0.392,1.818-0.485
			c-0.011-0.586-0.268-0.878-0.767-0.878c-0.337,0-0.721,0.135-1.15,0.405l-0.31-0.553c0.543-0.348,1.081-0.522,1.605-0.522
			c0.483,0,0.845,0.144,1.084,0.437c0.24,0.291,0.359,0.708,0.359,1.251v2.396h-0.677l-0.064-0.455h-0.026
			c-0.438,0.369-0.862,0.554-1.271,0.554C26.265,47.016,25.984,46.914,25.766,46.704"/>
	</g>
	<g>
		<defs>
			<rect id="SVGID_25_" x="2.884" y="8.291" width="33.968" height="40.42"/>
		</defs>
		<clipPath id="SVGID_26_">
			<use xlink:href="#SVGID_25_"  overflow="visible"/>
		</clipPath>
	</g>
	<g>
		<defs>
			<rect id="SVGID_27_" x="2.884" y="8.291" width="33.968" height="40.42"/>
		</defs>
		<clipPath id="SVGID_28_">
			<use xlink:href="#SVGID_27_"  overflow="visible"/>
		</clipPath>
	</g>
	<g>
		<defs>
			<rect id="SVGID_29_" x="2.884" y="8.291" width="33.968" height="40.42"/>
		</defs>
		<clipPath id="SVGID_30_">
			<use xlink:href="#SVGID_29_"  overflow="visible"/>
		</clipPath>
	</g>
</g>
</svg>
