<?xml version="1.0" encoding="utf-8"?>
<!-- Generator: Adobe Illustrator 16.0.0, SVG Export Plug-In . SVG Version: 6.00 Build 0)  -->
<!DOCTYPE svg PUBLIC "-//W3C//DTD SVG 1.1//EN" "http://www.w3.org/Graphics/SVG/1.1/DTD/svg11.dtd">
<svg version="1.1" id="Livello_1" xmlns="http://www.w3.org/2000/svg" xmlns:xlink="http://www.w3.org/1999/xlink" x="0px" y="0px"
	 width="24px" height="24px" viewBox="0 0 24 24" enable-background="new 0 0 24 24" xml:space="preserve">
<g>
	<g>
		<path fill="#FFFFFF" d="M15.567,10.291c0,0.978-0.305,1.725-0.916,2.242s-1.479,0.777-2.605,0.777H11.22v3.229H9.294V7.459h2.9
			c1.102,0,1.939,0.236,2.514,0.711C15.28,8.645,15.567,9.352,15.567,10.291z M11.22,11.732h0.633c0.593,0,1.035-0.117,1.33-0.352
			c0.294-0.233,0.441-0.574,0.441-1.021c0-0.451-0.124-0.785-0.371-1c-0.246-0.215-0.632-0.323-1.158-0.323H11.22V11.732z"/>
	</g>
	<path fill="#FFFFFF" d="M12.002,1.999c-5.52,0-10,4.479-10,10c0,5.52,4.48,10,10,10s10-4.48,10-10
		C22.002,6.479,17.521,1.999,12.002,1.999z M12.002,19.999c-4.42,0-8-3.58-8-8s3.58-8,8-8s8,3.58,8,8S16.422,19.999,12.002,19.999z"
		/>
</g>
</svg>
