<?xml version="1.0" encoding="utf-8"?>
<!-- Generator: Adobe Illustrator 16.0.0, SVG Export Plug-In . SVG Version: 6.00 Build 0)  -->
<!DOCTYPE svg PUBLIC "-//W3C//DTD SVG 1.1//EN" "http://www.w3.org/Graphics/SVG/1.1/DTD/svg11.dtd">
<svg version="1.1" id="Livello_1" xmlns="http://www.w3.org/2000/svg" xmlns:xlink="http://www.w3.org/1999/xlink" x="0px" y="0px"
	 width="24px" height="24px" viewBox="0 0 24 24" enable-background="new 0 0 24 24" xml:space="preserve">
<g>
	<g>
		<path fill="#858585" d="M15.565,10.292c0,0.978-0.305,1.725-0.916,2.242s-1.479,0.777-2.605,0.777h-0.826v3.229H9.292V7.46h2.9
			c1.102,0,1.939,0.236,2.514,0.711C15.278,8.646,15.565,9.353,15.565,10.292z M11.218,11.733h0.633c0.593,0,1.035-0.117,1.33-0.352
			c0.294-0.233,0.441-0.574,0.441-1.021c0-0.451-0.124-0.785-0.371-1c-0.246-0.215-0.632-0.323-1.158-0.323h-0.875V11.733z"/>
	</g>
	<path fill="#858585" d="M12,2C6.48,2,2,6.479,2,12c0,5.52,4.48,10,10,10s10-4.48,10-10C22,6.479,17.52,2,12,2z M12,20
		c-4.42,0-8-3.58-8-8s3.58-8,8-8s8,3.58,8,8S16.42,20,12,20z"/>
</g>
</svg>
