<?xml version="1.0" encoding="utf-8"?>
<!-- Generator: Adobe Illustrator 16.0.0, SVG Export Plug-In . SVG Version: 6.00 Build 0)  -->
<!DOCTYPE svg PUBLIC "-//W3C//DTD SVG 1.1//EN" "http://www.w3.org/Graphics/SVG/1.1/DTD/svg11.dtd">
<svg version="1.1" id="Livello_1" xmlns="http://www.w3.org/2000/svg" xmlns:xlink="http://www.w3.org/1999/xlink" x="0px" y="0px"
	 width="24px" height="24px" viewBox="0 0 24 24" enable-background="new 0 0 24 24" xml:space="preserve">
<path fill="#FF8624" d="M0.625,12C0.625,5.717,5.718,0.625,12,0.625l0,0c6.282,0,11.375,5.093,11.375,11.375l0,0
	c0,6.282-5.093,11.375-11.375,11.375l0,0C5.718,23.375,0.625,18.281,0.625,12L0.625,12z"/>
<g>
	<g>
		<path fill="#FFFFFF" d="M15.566,10.292c0,0.978-0.305,1.725-0.916,2.242c-0.61,0.517-1.479,0.776-2.604,0.776H11.22v3.229H9.294
			V7.46h2.9c1.102,0,1.939,0.236,2.514,0.711C15.279,8.646,15.566,9.353,15.566,10.292z M11.22,11.733h0.633
			c0.593,0,1.036-0.117,1.331-0.352c0.293-0.233,0.44-0.574,0.44-1.021c0-0.451-0.124-0.785-0.371-1
			c-0.246-0.215-0.632-0.323-1.158-0.323H11.22V11.733z"/>
	</g>
	<path fill="#FFFFFF" d="M12.002,2c-5.52,0-10,4.479-10,10c0,5.52,4.48,10,10,10c5.52,0,10-4.48,10-10
		C22.002,6.479,17.521,2,12.002,2z M12.002,20c-4.42,0-8-3.58-8-8s3.58-8,8-8s8,3.58,8,8S16.422,20,12.002,20z"/>
</g>
</svg>
