<?xml version="1.0" encoding="utf-8"?>
<!-- Generator: Adobe Illustrator 16.0.0, SVG Export Plug-In . SVG Version: 6.00 Build 0)  -->
<!DOCTYPE svg PUBLIC "-//W3C//DTD SVG 1.1//EN" "http://www.w3.org/Graphics/SVG/1.1/DTD/svg11.dtd">
<svg version="1.1" id="Livello_1" xmlns="http://www.w3.org/2000/svg" xmlns:xlink="http://www.w3.org/1999/xlink" x="0px" y="0px"
	 width="24px" height="24px" viewBox="0 0 24 24" enable-background="new 0 0 24 24" xml:space="preserve">
<g>
	<path fill="#8F8F8F" d="M12,11.677c2.619,0,4.75-2.131,4.75-4.75s-2.131-4.75-4.75-4.75s-4.75,2.131-4.75,4.75
		S9.381,11.677,12,11.677z M11.232,3.955c0.021-0.061,0.018-0.122,0.023-0.183c0.24-0.057,0.488-0.095,0.745-0.095
		c1.792,0,3.25,1.458,3.25,3.25s-1.458,3.25-3.25,3.25c-0.085,0-0.166-0.019-0.25-0.025V7.897c0-0.414-0.336-0.75-0.75-0.75h-0.837
		L11.232,3.955z"/>
	<path fill="#8F8F8F" d="M12,14.177c-2.956,0-8.75,1.435-8.75,4.75v2c0,0.414,0.336,0.75,0.75,0.75h16c0.414,0,0.75-0.336,0.75-0.75
		v-2C20.75,15.611,14.956,14.177,12,14.177z M19.25,20.177h-6.5v-4.468c2.812,0.209,6.5,1.519,6.5,3.218V20.177z"/>
</g>
</svg>
