<?xml version="1.0" encoding="utf-8"?>
<!-- Generator: Adobe Illustrator 16.0.0, SVG Export Plug-In . SVG Version: 6.00 Build 0)  -->
<!DOCTYPE svg PUBLIC "-//W3C//DTD SVG 1.1//EN" "http://www.w3.org/Graphics/SVG/1.1/DTD/svg11.dtd">
<svg version="1.1" id="Livello_1" xmlns="http://www.w3.org/2000/svg" xmlns:xlink="http://www.w3.org/1999/xlink" x="0px" y="0px"
	 width="24px" height="24px" viewBox="0 0 24 24" enable-background="new 0 0 24 24" xml:space="preserve">
<g>
	<path fill="#8F8F8F" d="M16.72,14.773c1.54,0.499,3.197-0.347,3.696-1.888c0.498-1.539-0.35-3.196-1.889-3.694L16.72,14.773z
		 M18.527,9.192 M16.318,16.015c-2.224-0.72-3.445-3.114-2.726-5.337c0.719-2.222,3.112-3.446,5.336-2.726s3.446,3.115,2.728,5.337
		C20.937,15.511,18.541,16.734,16.318,16.015"/>
</g>
<g>
	<path fill="#8F8F8F" d="M7.583,6.026l1.354,3.921l2.566-5.277L6.227,2.106L7.583,6.026z M8.954,11.406L2.504,8.27
		C2.18,8.112,2.046,7.722,2.203,7.399l3.137-6.45c0.157-0.325,0.546-0.459,0.87-0.302l6.45,3.136
		c0.321,0.157,0.46,0.547,0.302,0.871l-3.136,6.451C9.669,11.428,9.277,11.563,8.954,11.406"/>
</g>
<g>
	<path fill="#8F8F8F" d="M6.733,23.418c-0.115,0.009-0.233-0.011-0.341-0.062c-0.229-0.105-0.379-0.327-0.396-0.577l-0.53-7.968
		c-0.017-0.24,0.094-0.472,0.291-0.608s0.449-0.164,0.671-0.064l7.058,3.123c0.224,0.1,0.377,0.31,0.407,0.55
		c0.024,0.244-0.079,0.483-0.275,0.627l-6.528,4.847C6.983,23.362,6.858,23.408,6.733,23.418z M6.908,15.852l2.772,3.802
		l2.174-1.615L6.908,15.852z"/>
</g>
</svg>
