<?xml version="1.0" encoding="utf-8"?>
<!-- Generator: Adobe Illustrator 16.0.0, SVG Export Plug-In . SVG Version: 6.00 Build 0)  -->
<!DOCTYPE svg PUBLIC "-//W3C//DTD SVG 1.1//EN" "http://www.w3.org/Graphics/SVG/1.1/DTD/svg11.dtd">
<svg version="1.1" id="Livello_1" xmlns="http://www.w3.org/2000/svg" xmlns:xlink="http://www.w3.org/1999/xlink" x="0px" y="0px"
	 width="25.625px" height="25.625px" viewBox="0 0 25.625 25.625" enable-background="new 0 0 25.625 25.625" xml:space="preserve">
<g>
	<path fill="#FFFFFF" d="M22.812,12.828l1.501-0.016c0-1.51-0.289-2.979-0.858-4.366l-1.393,0.571
		c-0.503-1.223-1.238-2.325-2.155-3.249l1.065-1.058c-1.07-1.079-2.321-1.922-3.717-2.507l-0.58,1.384
		c-1.183-0.496-2.48-0.771-3.842-0.774l-0.021-1.501c-1.523,0-3.003,0.293-4.399,0.873l0.575,1.389
		C7.768,4.081,6.667,4.819,5.746,5.739L4.686,4.678C3.611,5.751,2.771,7.004,2.19,8.402l1.387,0.576
		c-0.49,1.18-0.764,2.473-0.765,3.828l-1.5,0.006c0,1.517,0.292,2.992,0.867,4.388l1.391-0.574c0.505,1.222,1.243,2.323,2.162,3.245
		L4.669,20.93c1.073,1.076,2.325,1.918,3.723,2.5l0.578-1.386c1.181,0.492,2.475,0.767,3.833,0.769l0.01,1.5
		c1.515,0,2.987-0.291,4.378-0.864l-0.573-1.391c1.223-0.504,2.324-1.24,3.246-2.158l1.06,1.063c1.077-1.072,1.92-2.324,2.503-3.719
		l-1.385-0.58C22.535,15.482,22.81,14.188,22.812,12.828z M12.812,20.812c-4.42,0-8-3.58-8-8s3.58-8,8-8s8,3.58,8,8
		S17.232,20.812,12.812,20.812z"/>
	<path fill="#FFFFFF" d="M13.555,12.113c-0.642-0.306-1.049-0.519-1.221-0.636c-0.172-0.119-0.297-0.241-0.375-0.367
		c-0.08-0.127-0.118-0.273-0.118-0.444c0-0.273,0.097-0.494,0.292-0.665c0.193-0.169,0.475-0.254,0.838-0.254
		c0.307,0,0.619,0.039,0.936,0.117c0.316,0.079,0.717,0.218,1.201,0.416l0.623-1.496c-0.469-0.203-0.918-0.361-1.346-0.473
		c-0.43-0.111-0.879-0.168-1.352-0.168c-0.961,0-1.713,0.23-2.258,0.689c-0.545,0.46-0.816,1.092-0.816,1.895
		c0,0.428,0.082,0.8,0.248,1.119c0.166,0.318,0.387,0.599,0.664,0.838c0.277,0.24,0.693,0.49,1.249,0.752
		c0.593,0.282,0.985,0.487,1.177,0.615c0.193,0.128,0.339,0.262,0.438,0.4c0.099,0.139,0.149,0.298,0.149,0.475
		c0,0.32-0.113,0.56-0.339,0.721c-0.226,0.162-0.55,0.242-0.972,0.242c-0.353,0-0.74-0.056-1.165-0.168
		c-0.425-0.111-0.944-0.304-1.557-0.577v1.789c0.745,0.364,1.603,0.547,2.572,0.547c1.052,0,1.872-0.236,2.463-0.708
		c0.591-0.473,0.885-1.119,0.885-1.938c0-0.592-0.157-1.093-0.472-1.499C14.986,12.927,14.404,12.52,13.555,12.113z"/>
</g>
</svg>
