<?xml version="1.0" encoding="utf-8"?>
<!-- Generator: Adobe Illustrator 16.0.0, SVG Export Plug-In . SVG Version: 6.00 Build 0)  -->
<!DOCTYPE svg PUBLIC "-//W3C//DTD SVG 1.1//EN" "http://www.w3.org/Graphics/SVG/1.1/DTD/svg11.dtd">
<svg version="1.1" id="Livello_1" xmlns="http://www.w3.org/2000/svg" xmlns:xlink="http://www.w3.org/1999/xlink" x="0px" y="0px"
	 width="24px" height="24px" viewBox="0 0 24 24" enable-background="new 0 0 24 24" xml:space="preserve">
<g>
	<path fill="#FFFFFF" d="M12,2C6.48,2,2,6.479,2,12c0,5.52,4.48,10,10,10s10-4.48,10-10C22,6.479,17.52,2,12,2z M12,20
		c-4.42,0-8-3.58-8-8s3.58-8,8-8s8,3.58,8,8S16.42,20,12,20z"/>
	<g>
		<path fill="#FFFFFF" d="M14.96,14.021c0,0.819-0.295,1.466-0.885,1.938c-0.591,0.472-1.411,0.708-2.463,0.708
			c-0.97,0-1.827-0.183-2.572-0.547v-1.789c0.613,0.273,1.132,0.466,1.557,0.577c0.425,0.112,0.812,0.168,1.165,0.168
			c0.422,0,0.746-0.08,0.972-0.242c0.226-0.161,0.339-0.4,0.339-0.721c0-0.177-0.051-0.336-0.149-0.475
			c-0.1-0.139-0.245-0.272-0.438-0.4c-0.192-0.128-0.584-0.333-1.177-0.615c-0.556-0.262-0.972-0.512-1.249-0.752
			c-0.277-0.239-0.498-0.52-0.664-0.838c-0.166-0.319-0.248-0.691-0.248-1.119c0-0.803,0.271-1.435,0.816-1.895
			c0.545-0.459,1.297-0.689,2.258-0.689c0.473,0,0.922,0.057,1.352,0.168C14,7.61,14.449,7.769,14.917,7.972l-0.622,1.496
			c-0.484-0.198-0.885-0.337-1.201-0.416c-0.316-0.078-0.629-0.117-0.936-0.117c-0.363,0-0.644,0.085-0.838,0.254
			c-0.195,0.171-0.292,0.392-0.292,0.665c0,0.171,0.039,0.317,0.118,0.444c0.078,0.126,0.203,0.248,0.375,0.367
			c0.172,0.117,0.579,0.33,1.221,0.636c0.85,0.406,1.432,0.813,1.746,1.222C14.803,12.929,14.96,13.43,14.96,14.021z"/>
	</g>
</g>
</svg>
