<?xml version="1.0" encoding="utf-8"?>
<!-- Generator: Adobe Illustrator 16.0.0, SVG Export Plug-In . SVG Version: 6.00 Build 0)  -->
<!DOCTYPE svg PUBLIC "-//W3C//DTD SVG 1.1//EN" "http://www.w3.org/Graphics/SVG/1.1/DTD/svg11.dtd">
<svg version="1.1" id="Livello_1" xmlns="http://www.w3.org/2000/svg" xmlns:xlink="http://www.w3.org/1999/xlink" x="0px" y="0px"
	 width="24px" height="24px" viewBox="0 0 24 24" enable-background="new 0 0 24 24" xml:space="preserve">
<path fill="#FFD144" d="M0.625,12C0.625,5.717,5.718,0.625,12,0.625l0,0c6.282,0,11.375,5.093,11.375,11.375l0,0
	c0,6.282-5.093,11.375-11.375,11.375l0,0C5.718,23.375,0.625,18.281,0.625,12L0.625,12z"/>
<g>
	<path fill="#FFFFFF" d="M12.002,2C6.48,2,2,6.48,2,12c0,5.52,4.48,10,10.002,10c5.52,0,10-4.48,10-10
		C22.002,6.48,17.521,2,12.002,2z M12.002,20C7.58,20,4,16.42,4,12s3.58-8,8.002-8c4.42,0,8,3.58,8,8S16.422,20,12.002,20z"/>
	<g>
		<path fill="#FFFFFF" d="M14.961,14.021c0,0.819-0.295,1.467-0.885,1.938s-1.41,0.707-2.463,0.707c-0.97,0-1.828-0.183-2.573-0.547
			v-1.789c0.613,0.272,1.132,0.467,1.557,0.578c0.424,0.11,0.813,0.168,1.167,0.168c0.422,0,0.748-0.08,0.97-0.242
			c0.228-0.162,0.341-0.399,0.341-0.721c0-0.179-0.052-0.337-0.15-0.476s-0.243-0.272-0.438-0.399
			c-0.193-0.13-0.584-0.334-1.178-0.615c-0.556-0.262-0.972-0.512-1.25-0.752c-0.278-0.24-0.498-0.52-0.664-0.838
			c-0.166-0.32-0.248-0.691-0.248-1.119c0-0.803,0.271-1.436,0.816-1.895s1.298-0.689,2.26-0.689c0.472,0,0.921,0.057,1.352,0.168
			c0.428,0.111,0.877,0.27,1.344,0.473l-0.621,1.496c-0.483-0.199-0.885-0.338-1.2-0.416c-0.316-0.078-0.63-0.117-0.937-0.117
			c-0.364,0-0.645,0.084-0.84,0.254c-0.195,0.17-0.291,0.391-0.291,0.664c0,0.172,0.039,0.318,0.117,0.445
			c0.08,0.125,0.203,0.248,0.377,0.367c0.172,0.117,0.579,0.33,1.221,0.635c0.851,0.406,1.432,0.814,1.746,1.224
			C14.805,12.93,14.961,13.43,14.961,14.021z"/>
	</g>
</g>
</svg>
