<?xml version="1.0" encoding="utf-8"?>
<!-- Generator: Adobe Illustrator 16.0.0, SVG Export Plug-In . SVG Version: 6.00 Build 0)  -->
<!DOCTYPE svg PUBLIC "-//W3C//DTD SVG 1.1//EN" "http://www.w3.org/Graphics/SVG/1.1/DTD/svg11.dtd">
<svg version="1.1" id="Livello_1" xmlns="http://www.w3.org/2000/svg" xmlns:xlink="http://www.w3.org/1999/xlink" x="0px" y="0px"
	 width="24px" height="24px" viewBox="0 0 24 24" enable-background="new 0 0 24 24" xml:space="preserve">
<g>
	<path fill="#FFD144" d="M12.002,2C6.48,2,2,6.48,2,12s4.48,10,10.002,10c5.52,0,10-4.48,10-10S17.521,2,12.002,2z M12.002,20
		C7.58,20,4,16.42,4,12s3.58-8,8.002-8c4.42,0,8,3.58,8,8S16.422,20,12.002,20z"/>
	<g>
		<path fill="#FFD144" d="M14.961,14.021c0,0.82-0.295,1.467-0.885,1.939c-0.59,0.471-1.41,0.707-2.463,0.707
			c-0.97,0-1.828-0.182-2.573-0.547v-1.789c0.613,0.273,1.132,0.467,1.557,0.578c0.424,0.111,0.813,0.168,1.167,0.168
			c0.422,0,0.747-0.08,0.971-0.242c0.227-0.162,0.34-0.4,0.34-0.721c0-0.178-0.051-0.336-0.15-0.475s-0.244-0.273-0.438-0.4
			c-0.193-0.129-0.584-0.334-1.178-0.615c-0.556-0.262-0.972-0.512-1.25-0.752s-0.498-0.52-0.664-0.838
			c-0.166-0.32-0.248-0.691-0.248-1.119c0-0.803,0.271-1.436,0.816-1.895s1.298-0.689,2.26-0.689c0.473,0,0.922,0.057,1.352,0.168
			c0.428,0.111,0.877,0.27,1.344,0.473l-0.621,1.496c-0.484-0.199-0.885-0.338-1.201-0.416s-0.629-0.117-0.936-0.117
			c-0.364,0-0.645,0.084-0.84,0.254s-0.291,0.391-0.291,0.664c0,0.172,0.039,0.318,0.117,0.445c0.08,0.125,0.203,0.248,0.377,0.367
			c0.172,0.117,0.579,0.33,1.221,0.635c0.85,0.406,1.432,0.814,1.746,1.223C14.805,12.93,14.961,13.43,14.961,14.021z"/>
	</g>
</g>
</svg>
